<svg xmlns="http://www.w3.org/2000/svg" viewBox="0 0 471.11 366.38">
  <defs>
    <linearGradient id="gradient1" x1="93.16" y1="403.85" x2="423.79" y2="98.32" gradientUnits="userSpaceOnUse">
      <stop offset="0" stop-color="#26b8c8"/>
      <stop offset="1" stop-color="#2277be"/>
    </linearGradient>
  </defs>
  <path fill="url(#gradient1)" d="M242.81 364.73H121.63v-39.8h121.18zm-200.76-136.71a107 107 0 0142.58-85.51l-29.81-30.08a149.27 149.27 0 00-.89 230.44l30.54-29.48a106.78 106.78 0 01-42.42-85.37zm204.88-228A139.26 139.26 0 00107.65 139.28c0 1.13 0 2.22 0 3.32h37.28c0-1.1-.07-2.19-.07-3.32a102 102 0 01102-102 99.17 99.17 0 0113.76.93V.69a135.73 135.73 0 00-13.71-.67z"/>
  <path fill="url(#gradient1)" d="M470.25 201.06h-42.35a107.28 107.28 0 01-119.17 122.5v42.25c4.31.37 8.72.57 13.13.57a149.23 149.23 0 00149.25-149.23 152.39 152.39 0 00-.86-16.09zm-200.39 82.06v43.15s28.37 1.9 38.89-2.35v-42.59s-25.59 5.37-38.89 1.79zm117.48-80.93h40.69c5.82-2.91 3.13-40.69 3.13-40.69h-40.91c3.13 25.49-2.91 40.69-2.91 40.69z"/>
</svg>